<?xml version="1.0" standalone="no"?><!DOCTYPE svg PUBLIC "-//W3C//DTD SVG 1.1//EN" "http://www.w3.org/Graphics/SVG/1.1/DTD/svg11.dtd"><svg t="1779603833124" class="icon" viewBox="0 0 1024 1024" version="1.1" xmlns="http://www.w3.org/2000/svg" p-id="1828" xmlns:xlink="http://www.w3.org/1999/xlink" width="200" height="200"><path d="M917.930667 470.016c-134.826667-90.026667-276.906667-103.509333-276.906667-103.509333s7.168 205.653333-9.386667 267.946666c-0.426667 8.533333-10.325333 65.877333-37.632 137.984-9.386667 24.661333-21.077333 48.426667-34.517333 71.253334a646.869333 646.869333 0 0 1-78.421333 111.573333c104.874667-42.581333 179.669333-81.066667 271.104-153.685333 107.52-84.693333 200.704-222.72 165.76-331.562667z" fill="#37E1BE" p-id="1829"></path><path d="M367.274667 431.488c138.453333-88.277333 270.165333-68.992 273.322666-65.408 0.426667 0.426667 0.853333 0.426667 0.853334 0.426667 0-12.544-5.802667-53.333333-11.605334-93.184-10.325333-53.333333-19.712-109.312-20.181333-116.906667-149.205333-121.898667-312.32-68.608-392.021333 22.357333C163.84 240.213333 127.104 327.552 128 375.04v377.685333c0.426667-11.178667 1.28-17.92 1.749333-17.92 15.701333-172.501333 237.482667-303.36 237.482667-303.36z" fill="#A569FF" p-id="1830"></path><path d="M771.84 323.498667c-36.693333-38.101333-76.586667-77.525333-107.093333-109.781334-29.098667-30.464-51.925333-53.333333-55.04-57.344 0.426667 7.637333 9.813333 63.616 20.138666 116.949334 5.802667 39.893333 11.178667 81.066667 11.648 93.184 0 0 142.037333 13.44 276.906667 103.509333-0.426667 0-73.045333-70.357333-146.517333-146.517333zM559.957333 843.690667c-2.261333 0.896-173.866667 93.653333-255.872-26.88-18.346667-26.88-27.733333-59.605333-29.098666-93.184-2.688-65.408 4.48-199.381333 92.288-292.138667 0 0-221.781333 130.816-237.013334 303.36-0.426667 0.426667-1.792 7.125333-1.792 17.92-0.896 28.629333 4.010667 86.016 37.632 135.722667 45.696 68.565333 168.917333 121.429333 287.189334 74.837333l29.141333-8.533333c-0.896 0.426667 41.685333-45.653333 77.525333-111.104z" fill="#1E37FC" p-id="1831"></path></svg>