<?xml version="1.0" standalone="no"?><!DOCTYPE svg PUBLIC "-//W3C//DTD SVG 1.1//EN" "http://www.w3.org/Graphics/SVG/1.1/DTD/svg11.dtd"><svg t="1779606669439" class="icon" viewBox="0 0 1024 1024" version="1.1" xmlns="http://www.w3.org/2000/svg" p-id="18110" xmlns:xlink="http://www.w3.org/1999/xlink" width="200" height="200"><path d="M301.056 67.584c-79.872 71.68-113.664 214.016-54.272 294.912 62.464 86.016 204.8 74.752 296.96 5.12 103.424-78.848 258.048-76.8 308.224 40.96 38.912 94.208 3.072 209.92-90.112 276.48-183.296 132.096-451.584 107.52-575.488-61.44C64.512 455.68 129.024 208.896 301.056 67.584z" fill="#FFFFFF" p-id="18111"></path><path d="M512 24.576C229.376 24.576 0 241.664 0 508.928s229.376 485.376 512 485.376 512-217.088 512-485.376S794.624 24.576 512 24.576z m249.856 660.48c-183.296 132.096-451.584 107.52-575.488-61.44C64.512 455.68 129.024 208.896 301.056 67.584c-79.872 71.68-113.664 214.016-54.272 294.912 62.464 86.016 204.8 74.752 296.96 5.12 103.424-78.848 258.048-76.8 308.224 40.96 38.912 94.208 3.072 209.92-90.112 276.48z" fill="#00CC70" p-id="18112"></path><path d="M630.784 632.832c-9.216 0-17.408-4.096-22.528-11.264L564.224 563.2c-7.168-10.24-7.168-24.576 0-34.816l44.032-56.32c9.216-12.288 27.648-14.336 39.936-5.12 12.288 9.216 14.336 27.648 5.12 39.936l-30.72 39.936 30.72 40.96c9.216 12.288 7.168 30.72-6.144 39.936-5.12 4.096-11.264 5.12-17.408 5.12zM463.872 547.84c0 76.8-15.36 91.136-49.152 91.136s-49.152-14.336-49.152-91.136 15.36-91.136 49.152-91.136 49.152 14.336 49.152 91.136z" p-id="18113"></path></svg>